<svg width="153" height="21" viewBox="0 0 153 21" fill="none" xmlns="http://www.w3.org/2000/svg">
<path d="M9.40007 20.26C7.63207 20.26 6.10674 19.896 4.82407 19.168C3.5414 18.44 2.5534 17.452 1.86007 16.204C1.16673 14.9387 0.820068 13.5 0.820068 11.888C0.820068 10.6573 1.05407 9.48733 1.52207 8.378C2.0074 7.25133 2.6574 6.25467 3.47207 5.388C4.30407 4.52133 5.2574 3.83667 6.33207 3.334C7.42407 2.83133 8.57674 2.58 9.79007 2.58C10.6567 2.58 11.3934 2.64067 12.0001 2.762C12.6067 2.866 13.1441 3.01333 13.6121 3.204C14.0974 3.37733 14.5827 3.58533 15.0681 3.828L15.1981 8.378H14.7301L13.1441 5.206C12.4854 4.738 11.9047 4.4 11.4021 4.192C10.9167 3.984 10.3621 3.88 9.73807 3.88C8.49007 3.88 7.37207 4.192 6.38407 4.816C5.4134 5.44 4.64207 6.298 4.07007 7.39C3.5154 8.46467 3.23807 9.704 3.23807 11.108C3.23807 12.7547 3.50673 14.1673 4.04407 15.346C4.59874 16.5073 5.3354 17.4 6.25407 18.024C7.19007 18.6307 8.2214 18.934 9.34807 18.934C10.3014 18.934 11.0987 18.804 11.7401 18.544C12.3987 18.2667 12.9794 17.9633 13.4821 17.634L15.0421 14.852H15.4841L15.1981 18.986C14.6954 19.246 14.1754 19.4713 13.6381 19.662C13.1181 19.8527 12.5201 20 11.8441 20.104C11.1681 20.208 10.3534 20.26 9.40007 20.26Z" fill="#202020"/>
<path d="M19.1133 20V19.584L20.7513 18.752V3.464L19.1913 2.112V1.93L22.6753 0.5H22.8313V9.964H22.9353C23.594 9.30533 24.2266 8.82 24.8333 8.508C25.4573 8.196 26.142 8.04 26.8873 8.04C27.91 8.04 28.742 8.3 29.3833 8.82C30.042 9.32267 30.3713 10.0767 30.3713 11.082V18.752L32.0093 19.584V20H26.4453V19.584L28.2913 18.83V12.304C28.2913 11.5413 28.0486 10.9607 27.5633 10.562C27.0953 10.1633 26.48 9.964 25.7173 9.964C25.2493 9.964 24.7293 10.042 24.1573 10.198C23.6026 10.354 23.1606 10.5793 22.8313 10.874V18.83L24.6773 19.584V20H19.1133Z" fill="#202020"/>
<path d="M39.7321 20.26C38.0508 20.26 36.7248 19.7487 35.7541 18.726C34.7834 17.7033 34.2981 16.3513 34.2981 14.67C34.2981 13.37 34.5494 12.226 35.0521 11.238C35.5721 10.2327 36.2481 9.45267 37.0801 8.898C37.9294 8.326 38.8481 8.04 39.8361 8.04C41.2055 8.04 42.2801 8.51667 43.0601 9.47C43.8574 10.4233 44.2561 11.7927 44.2561 13.578L44.1261 13.708H36.3521C36.3694 14.5053 36.5254 15.2593 36.8201 15.97C37.1148 16.6633 37.5828 17.2267 38.2241 17.66C38.8828 18.0933 39.7581 18.31 40.8501 18.31C41.8035 18.31 42.9215 17.9633 44.2041 17.27H44.2821V17.53C43.8834 18.2753 43.2855 18.9167 42.4881 19.454C41.7081 19.9913 40.7895 20.26 39.7321 20.26ZM39.4201 9.184C38.5881 9.184 37.9034 9.47867 37.3661 10.068C36.8461 10.64 36.5255 11.4547 36.4041 12.512H42.2801C42.0895 11.3333 41.7515 10.484 41.2661 9.964C40.7981 9.444 40.1828 9.184 39.4201 9.184Z" fill="#202020"/>
<path d="M46.9439 20V19.584L48.5819 18.752V11.004L47.0219 9.652V9.47L50.2459 8.04H50.4019L50.6359 10.25H50.7399C51.1385 9.60867 51.5025 9.132 51.8319 8.82C52.1785 8.49067 52.4992 8.28267 52.7939 8.196C53.0885 8.092 53.3832 8.04 53.6779 8.04C53.8165 8.04 53.9725 8.066 54.1459 8.118C54.3365 8.17 54.4925 8.222 54.6139 8.274C54.8045 8.36067 54.9779 8.46467 55.1339 8.586C55.3072 8.70733 55.3939 8.846 55.3939 9.002C55.3939 9.158 55.3592 9.314 55.2899 9.47L54.7699 10.744H54.5879L53.5999 10.354C53.4092 10.2673 53.2185 10.2153 53.0279 10.198C52.8545 10.1807 52.6812 10.172 52.5079 10.172C51.7799 10.172 51.1645 10.5447 50.6619 11.29V18.752L52.5079 19.584V20H46.9439Z" fill="#202020"/>
<path d="M57.2779 20V19.584L58.9159 18.752V11.004L57.3559 9.652V9.47L60.5798 8.04H60.7359L60.9698 10.25H61.0738C61.4725 9.60867 61.8365 9.132 62.1659 8.82C62.5125 8.49067 62.8332 8.28267 63.1279 8.196C63.4225 8.092 63.7172 8.04 64.0118 8.04C64.1505 8.04 64.3065 8.066 64.4799 8.118C64.6705 8.17 64.8265 8.222 64.9479 8.274C65.1385 8.36067 65.3118 8.46467 65.4678 8.586C65.6412 8.70733 65.7279 8.846 65.7279 9.002C65.7279 9.158 65.6932 9.314 65.6238 9.47L65.1039 10.744H64.9219L63.9339 10.354C63.7432 10.2673 63.5525 10.2153 63.3618 10.198C63.1885 10.1807 63.0152 10.172 62.8419 10.172C62.1139 10.172 61.4985 10.5447 60.9958 11.29V18.752L62.8419 19.584V20H57.2779Z" fill="#202020"/>
<path d="M70.2638 4.894C69.8132 4.894 69.4405 4.74667 69.1458 4.452C68.8512 4.14 68.7038 3.76733 68.7038 3.334C68.7038 2.88333 68.8512 2.51067 69.1458 2.216C69.4405 1.92133 69.8132 1.774 70.2638 1.774C70.7145 1.774 71.0872 1.92133 71.3818 2.216C71.6765 2.51067 71.8238 2.88333 71.8238 3.334C71.8238 3.76733 71.6765 4.14 71.3818 4.452C71.0872 4.74667 70.7145 4.894 70.2638 4.894ZM67.6638 20V19.584L69.3018 18.752V11.004L67.7418 9.652V9.47L71.2258 8.04H71.3818V18.752L73.0198 19.584V20H67.6638Z" fill="#202020"/>
<path d="M81.1442 20.26C79.4629 20.26 78.1369 19.7487 77.1662 18.726C76.1956 17.7033 75.7102 16.3513 75.7102 14.67C75.7102 13.37 75.9616 12.226 76.4642 11.238C76.9842 10.2327 77.6602 9.45267 78.4922 8.898C79.3416 8.326 80.2602 8.04 81.2482 8.04C82.6176 8.04 83.6922 8.51667 84.4722 9.47C85.2696 10.4233 85.6682 11.7927 85.6682 13.578L85.5382 13.708H77.7642C77.7816 14.5053 77.9376 15.2593 78.2322 15.97C78.5269 16.6633 78.9949 17.2267 79.6362 17.66C80.2949 18.0933 81.1702 18.31 82.2622 18.31C83.2156 18.31 84.3336 17.9633 85.6162 17.27H85.6942V17.53C85.2956 18.2753 84.6976 18.9167 83.9002 19.454C83.1202 19.9913 82.2016 20.26 81.1442 20.26ZM80.8322 9.184C80.0002 9.184 79.3156 9.47867 78.7782 10.068C78.2582 10.64 77.9376 11.4547 77.8162 12.512H83.6922C83.5016 11.3333 83.1636 10.484 82.6782 9.964C82.2102 9.444 81.5949 9.184 80.8322 9.184Z" fill="#202020"/>
<path d="M92.542 20.26C91.7273 20.26 91.0253 20.1907 90.436 20.052C89.8466 19.9133 89.2486 19.688 88.642 19.376V16.464H89.006L89.838 17.894C90.3753 18.8473 91.2506 19.324 92.464 19.324C93.1573 19.324 93.6946 19.1593 94.076 18.83C94.4746 18.5007 94.674 18.05 94.674 17.478C94.674 16.9753 94.5526 16.5853 94.31 16.308C94.0673 16.0307 93.7206 15.788 93.27 15.58C92.8366 15.3547 92.3166 15.1033 91.71 14.826C90.826 14.4273 90.1413 13.994 89.656 13.526C89.188 13.0407 88.954 12.3647 88.954 11.498C88.954 10.8567 89.136 10.276 89.5 9.756C89.864 9.236 90.3233 8.82 90.878 8.508C91.45 8.196 92.0393 8.04 92.646 8.04C93.2873 8.04 93.8766 8.118 94.414 8.274C94.9513 8.43 95.4973 8.64667 96.052 8.924V11.758H95.688L94.83 10.38C94.5353 9.912 94.2146 9.574 93.868 9.366C93.5213 9.158 93.1486 9.054 92.75 9.054C92.1606 9.054 91.684 9.20133 91.32 9.496C90.9733 9.79067 90.8 10.198 90.8 10.718C90.8 11.3073 91.008 11.758 91.424 12.07C91.8573 12.3647 92.4813 12.7027 93.296 13.084C93.7813 13.3267 94.2666 13.5693 94.752 13.812C95.2546 14.0547 95.662 14.4013 95.974 14.852C96.3033 15.2853 96.468 15.9093 96.468 16.724C96.468 17.4867 96.26 18.1367 95.844 18.674C95.428 19.194 94.9166 19.5927 94.31 19.87C93.7033 20.13 93.114 20.26 92.542 20.26Z" fill="#202020"/>
<path d="M107.483 20.13L100.931 4.166L99.1366 3.256V2.84H105.637V3.256L103.401 4.218V4.348L108.263 16.256H108.393L113.229 4.244V4.14L111.097 3.256V2.84H116.557V3.256L115.075 4.036L108.393 20.13H107.483Z" fill="#202020"/>
<path d="M121.477 4.894C121.026 4.894 120.653 4.74667 120.359 4.452C120.064 4.14 119.917 3.76733 119.917 3.334C119.917 2.88333 120.064 2.51067 120.359 2.216C120.653 1.92133 121.026 1.774 121.477 1.774C121.927 1.774 122.3 1.92133 122.595 2.216C122.889 2.51067 123.037 2.88333 123.037 3.334C123.037 3.76733 122.889 4.14 122.595 4.452C122.3 4.74667 121.927 4.894 121.477 4.894ZM118.877 20V19.584L120.515 18.752V11.004L118.955 9.652V9.47L122.439 8.04H122.595V18.752L124.233 19.584V20H118.877Z" fill="#202020"/>
<path d="M126.767 20V19.584L128.405 18.752V3.464L126.845 2.112V1.93L130.329 0.5H130.485V18.752L132.123 19.584V20H126.767Z" fill="#202020"/>
<path d="M134.41 20V19.584L136.048 18.752V3.464L134.488 2.112V1.93L137.972 0.5H138.128V18.752L139.766 19.584V20H134.41Z" fill="#202020"/>
<path d="M147.642 20.26C145.961 20.26 144.635 19.7487 143.664 18.726C142.694 17.7033 142.208 16.3513 142.208 14.67C142.208 13.37 142.46 12.226 142.962 11.238C143.482 10.2327 144.158 9.45267 144.99 8.898C145.84 8.326 146.758 8.04 147.746 8.04C149.116 8.04 150.19 8.51667 150.97 9.47C151.768 10.4233 152.166 11.7927 152.166 13.578L152.036 13.708H144.262C144.28 14.5053 144.436 15.2593 144.73 15.97C145.025 16.6633 145.493 17.2267 146.134 17.66C146.793 18.0933 147.668 18.31 148.76 18.31C149.714 18.31 150.832 17.9633 152.114 17.27H152.192V17.53C151.794 18.2753 151.196 18.9167 150.398 19.454C149.618 19.9913 148.7 20.26 147.642 20.26ZM147.33 9.184C146.498 9.184 145.814 9.47867 145.276 10.068C144.756 10.64 144.436 11.4547 144.314 12.512H150.19C150 11.3333 149.662 10.484 149.176 9.964C148.708 9.444 148.093 9.184 147.33 9.184Z" fill="#202020"/>
</svg>
